<?xml version="1.0" encoding="UTF-8"?>
<svg id="Layer_1" data-name="Layer 1" xmlns="http://www.w3.org/2000/svg" viewBox="0 0 49.28 552.59">
  <rect x="10.06" y="261.46" width="29.67" height="29.67" transform="translate(-188.08 98.53) rotate(-45)" fill="#fff"/>
  <line x1="3.65" y1="3.15" x2="44.16" y2="3.15" fill="none" stroke="#a8d1d3" stroke-miterlimit="10"/>
  <line x1="3.65" y1="7.97" x2="44.16" y2="7.97" fill="none" stroke="#a8d1d3" stroke-miterlimit="10"/>
  <line x1="3.65" y1="12.79" x2="44.16" y2="12.79" fill="none" stroke="#a8d1d3" stroke-miterlimit="10"/>
  <line x1="3.65" y1="17.6" x2="44.16" y2="17.6" fill="none" stroke="#a8d1d3" stroke-miterlimit="10"/>
  <line x1="3.65" y1="22.42" x2="44.16" y2="22.42" fill="none" stroke="#a8d1d3" stroke-miterlimit="10"/>
  <line x1="3.65" y1="27.24" x2="44.16" y2="27.24" fill="none" stroke="#a8d1d3" stroke-miterlimit="10"/>
  <line x1="3.65" y1="65.01" x2="44.16" y2="65.01" fill="none" stroke="#a8d1d3" stroke-miterlimit="10"/>
  <line x1="3.65" y1="69.83" x2="44.16" y2="69.83" fill="none" stroke="#a8d1d3" stroke-miterlimit="10"/>
  <line x1="3.65" y1="74.64" x2="44.16" y2="74.64" fill="none" stroke="#a8d1d3" stroke-miterlimit="10"/>
  <line x1="3.65" y1="79.46" x2="44.16" y2="79.46" fill="none" stroke="#a8d1d3" stroke-miterlimit="10"/>
  <line x1="3.65" y1="84.28" x2="44.16" y2="84.28" fill="none" stroke="#a8d1d3" stroke-miterlimit="10"/>
  <line x1="3.65" y1="89.1" x2="44.16" y2="89.1" fill="none" stroke="#a8d1d3" stroke-miterlimit="10"/>
  <line x1="3.65" y1="33.51" x2="3.65" y2="59.11" fill="#1d1d1b" stroke="#1d1d1b" stroke-miterlimit="10"/>
  <line x1="7.7" y1="33.51" x2="7.7" y2="59.11" fill="#1d1d1b" stroke="#1d1d1b" stroke-miterlimit="10"/>
  <line x1="11.76" y1="33.51" x2="11.76" y2="59.11" fill="#1d1d1b" stroke="#1d1d1b" stroke-miterlimit="10"/>
  <line x1="15.81" y1="33.51" x2="15.81" y2="59.11" fill="#1d1d1b" stroke="#1d1d1b" stroke-miterlimit="10"/>
  <line x1="19.86" y1="33.51" x2="19.86" y2="59.11" fill="#1d1d1b" stroke="#1d1d1b" stroke-miterlimit="10"/>
  <line x1="23.91" y1="33.51" x2="23.91" y2="59.11" fill="#1d1d1b" stroke="#1d1d1b" stroke-miterlimit="10"/>
  <line x1="27.96" y1="33.51" x2="27.96" y2="59.11" fill="#1d1d1b" stroke="#1d1d1b" stroke-miterlimit="10"/>
  <line x1="32.01" y1="33.51" x2="32.01" y2="59.11" fill="#1d1d1b" stroke="#1d1d1b" stroke-miterlimit="10"/>
  <line x1="36.06" y1="33.51" x2="36.06" y2="59.11" fill="#1d1d1b" stroke="#1d1d1b" stroke-miterlimit="10"/>
  <line x1="40.11" y1="33.51" x2="40.11" y2="59.11" fill="#1d1d1b" stroke="#1d1d1b" stroke-miterlimit="10"/>
  <line x1="44.16" y1="33.51" x2="44.16" y2="59.11" fill="#1d1d1b" stroke="#1d1d1b" stroke-miterlimit="10"/>
  <line x1="3.65" y1="95.18" x2="3.65" y2="120.79" fill="#1d1d1b" stroke="#1d1d1b" stroke-miterlimit="10"/>
  <line x1="7.7" y1="95.18" x2="7.7" y2="120.79" fill="#1d1d1b" stroke="#1d1d1b" stroke-miterlimit="10"/>
  <line x1="11.76" y1="95.18" x2="11.76" y2="120.79" fill="#1d1d1b" stroke="#1d1d1b" stroke-miterlimit="10"/>
  <line x1="15.81" y1="95.18" x2="15.81" y2="120.79" fill="#1d1d1b" stroke="#1d1d1b" stroke-miterlimit="10"/>
  <line x1="19.86" y1="95.18" x2="19.86" y2="120.79" fill="#1d1d1b" stroke="#1d1d1b" stroke-miterlimit="10"/>
  <line x1="23.91" y1="95.18" x2="23.91" y2="120.79" fill="#1d1d1b" stroke="#1d1d1b" stroke-miterlimit="10"/>
  <line x1="27.96" y1="95.18" x2="27.96" y2="120.79" fill="#1d1d1b" stroke="#1d1d1b" stroke-miterlimit="10"/>
  <line x1="32.01" y1="95.18" x2="32.01" y2="120.79" fill="#1d1d1b" stroke="#1d1d1b" stroke-miterlimit="10"/>
  <line x1="36.06" y1="95.18" x2="36.06" y2="120.79" fill="#1d1d1b" stroke="#1d1d1b" stroke-miterlimit="10"/>
  <line x1="40.11" y1="95.18" x2="40.11" y2="120.79" fill="#1d1d1b" stroke="#1d1d1b" stroke-miterlimit="10"/>
  <line x1="44.16" y1="95.18" x2="44.16" y2="120.79" fill="#1d1d1b" stroke="#1d1d1b" stroke-miterlimit="10"/>
  <circle cx="9.61" cy="131.95" r="5.09" fill="#fff" stroke="#1d1d1b" stroke-miterlimit="10"/>
  <circle cx="40.19" cy="131.95" r="5.09" fill="#fff" stroke="#1d1d1b" stroke-miterlimit="10"/>
  <circle cx="24.9" cy="132.18" r="5.09" fill="#fff" stroke="#1d1d1b" stroke-miterlimit="10"/>
  <circle cx="9.61" cy="146.29" r="5.09" fill="#1d1d1b" stroke="#1d1d1b" stroke-miterlimit="10"/>
  <circle cx="40.19" cy="146.29" r="5.09" fill="#1d1d1b" stroke="#1d1d1b" stroke-miterlimit="10"/>
  <circle cx="24.9" cy="146.52" r="5.09" fill="#1d1d1b" stroke="#1d1d1b" stroke-miterlimit="10"/>
  <circle cx="9.61" cy="163.01" r="5.09" fill="#fff" stroke="#1d1d1b" stroke-miterlimit="10"/>
  <circle cx="40.19" cy="163.01" r="5.09" fill="#fff" stroke="#1d1d1b" stroke-miterlimit="10"/>
  <circle cx="24.9" cy="163.24" r="5.09" fill="#fff" stroke="#1d1d1b" stroke-miterlimit="10"/>
  <circle cx="9.61" cy="177.35" r="5.09" fill="#1d1d1b" stroke="#1d1d1b" stroke-miterlimit="10"/>
  <circle cx="40.19" cy="177.35" r="5.09" fill="#1d1d1b" stroke="#1d1d1b" stroke-miterlimit="10"/>
  <circle cx="24.9" cy="177.58" r="5.09" fill="#1d1d1b" stroke="#1d1d1b" stroke-miterlimit="10"/>
  <circle cx="9.61" cy="194.07" r="5.09" fill="#fff" stroke="#1d1d1b" stroke-miterlimit="10"/>
  <circle cx="40.19" cy="194.07" r="5.09" fill="#fff" stroke="#1d1d1b" stroke-miterlimit="10"/>
  <circle cx="24.9" cy="194.29" r="5.09" fill="#fff" stroke="#1d1d1b" stroke-miterlimit="10"/>
  <circle cx="9.61" cy="208.41" r="5.09" fill="#1d1d1b" stroke="#1d1d1b" stroke-miterlimit="10"/>
  <circle cx="40.19" cy="208.41" r="5.09" fill="#1d1d1b" stroke="#1d1d1b" stroke-miterlimit="10"/>
  <circle cx="24.9" cy="208.63" r="5.09" fill="#1d1d1b" stroke="#1d1d1b" stroke-miterlimit="10"/>
  <circle cx="9.61" cy="225.13" r="5.09" fill="#fff" stroke="#1d1d1b" stroke-miterlimit="10"/>
  <circle cx="40.19" cy="225.13" r="5.09" fill="#fff" stroke="#1d1d1b" stroke-miterlimit="10"/>
  <circle cx="24.9" cy="225.35" r="5.09" fill="#fff" stroke="#1d1d1b" stroke-miterlimit="10"/>
  <circle cx="9.61" cy="239.47" r="5.09" fill="#1d1d1b" stroke="#1d1d1b" stroke-miterlimit="10"/>
  <circle cx="40.19" cy="239.47" r="5.09" fill="#1d1d1b" stroke="#1d1d1b" stroke-miterlimit="10"/>
  <circle cx="24.9" cy="239.69" r="5.09" fill="#1d1d1b" stroke="#1d1d1b" stroke-miterlimit="10"/>
  <line x1="4.09" y1="549.44" x2="44.6" y2="549.44" fill="none" stroke="#a8d1d3" stroke-miterlimit="10"/>
  <line x1="4.09" y1="544.62" x2="44.6" y2="544.62" fill="none" stroke="#a8d1d3" stroke-miterlimit="10"/>
  <line x1="4.09" y1="539.8" x2="44.6" y2="539.8" fill="none" stroke="#a8d1d3" stroke-miterlimit="10"/>
  <line x1="4.09" y1="534.99" x2="44.6" y2="534.99" fill="none" stroke="#a8d1d3" stroke-miterlimit="10"/>
  <line x1="4.09" y1="530.17" x2="44.6" y2="530.17" fill="none" stroke="#a8d1d3" stroke-miterlimit="10"/>
  <line x1="4.09" y1="525.35" x2="44.6" y2="525.35" fill="none" stroke="#a8d1d3" stroke-miterlimit="10"/>
  <line x1="4.09" y1="487.58" x2="44.6" y2="487.58" fill="none" stroke="#a8d1d3" stroke-miterlimit="10"/>
  <line x1="4.09" y1="482.76" x2="44.6" y2="482.76" fill="none" stroke="#a8d1d3" stroke-miterlimit="10"/>
  <line x1="4.09" y1="477.95" x2="44.6" y2="477.95" fill="none" stroke="#a8d1d3" stroke-miterlimit="10"/>
  <line x1="4.09" y1="473.13" x2="44.6" y2="473.13" fill="none" stroke="#a8d1d3" stroke-miterlimit="10"/>
  <line x1="4.09" y1="468.31" x2="44.6" y2="468.31" fill="none" stroke="#a8d1d3" stroke-miterlimit="10"/>
  <line x1="4.09" y1="463.49" x2="44.6" y2="463.49" fill="none" stroke="#a8d1d3" stroke-miterlimit="10"/>
  <line x1="4.09" y1="519.08" x2="4.09" y2="493.48" fill="#1d1d1b" stroke="#1d1d1b" stroke-miterlimit="10"/>
  <line x1="8.14" y1="519.08" x2="8.14" y2="493.48" fill="#1d1d1b" stroke="#1d1d1b" stroke-miterlimit="10"/>
  <line x1="12.19" y1="519.08" x2="12.19" y2="493.48" fill="#1d1d1b" stroke="#1d1d1b" stroke-miterlimit="10"/>
  <line x1="16.24" y1="519.08" x2="16.24" y2="493.48" fill="#1d1d1b" stroke="#1d1d1b" stroke-miterlimit="10"/>
  <line x1="20.29" y1="519.08" x2="20.29" y2="493.48" fill="#1d1d1b" stroke="#1d1d1b" stroke-miterlimit="10"/>
  <line x1="24.34" y1="519.08" x2="24.34" y2="493.48" fill="#1d1d1b" stroke="#1d1d1b" stroke-miterlimit="10"/>
  <line x1="28.39" y1="519.08" x2="28.39" y2="493.48" fill="#1d1d1b" stroke="#1d1d1b" stroke-miterlimit="10"/>
  <line x1="32.44" y1="519.08" x2="32.44" y2="493.48" fill="#1d1d1b" stroke="#1d1d1b" stroke-miterlimit="10"/>
  <line x1="36.5" y1="519.08" x2="36.5" y2="493.48" fill="#1d1d1b" stroke="#1d1d1b" stroke-miterlimit="10"/>
  <line x1="40.55" y1="519.08" x2="40.55" y2="493.48" fill="#1d1d1b" stroke="#1d1d1b" stroke-miterlimit="10"/>
  <line x1="44.6" y1="519.08" x2="44.6" y2="493.48" fill="#1d1d1b" stroke="#1d1d1b" stroke-miterlimit="10"/>
  <line x1="4.09" y1="457.41" x2="4.09" y2="431.8" fill="#1d1d1b" stroke="#1d1d1b" stroke-miterlimit="10"/>
  <line x1="8.14" y1="457.41" x2="8.14" y2="431.8" fill="#1d1d1b" stroke="#1d1d1b" stroke-miterlimit="10"/>
  <line x1="12.19" y1="457.41" x2="12.19" y2="431.8" fill="#1d1d1b" stroke="#1d1d1b" stroke-miterlimit="10"/>
  <line x1="16.24" y1="457.41" x2="16.24" y2="431.8" fill="#1d1d1b" stroke="#1d1d1b" stroke-miterlimit="10"/>
  <line x1="20.29" y1="457.41" x2="20.29" y2="431.8" fill="#1d1d1b" stroke="#1d1d1b" stroke-miterlimit="10"/>
  <line x1="24.34" y1="457.41" x2="24.34" y2="431.8" fill="#1d1d1b" stroke="#1d1d1b" stroke-miterlimit="10"/>
  <line x1="28.39" y1="457.41" x2="28.39" y2="431.8" fill="#1d1d1b" stroke="#1d1d1b" stroke-miterlimit="10"/>
  <line x1="32.44" y1="457.41" x2="32.44" y2="431.8" fill="#1d1d1b" stroke="#1d1d1b" stroke-miterlimit="10"/>
  <line x1="36.5" y1="457.41" x2="36.5" y2="431.8" fill="#1d1d1b" stroke="#1d1d1b" stroke-miterlimit="10"/>
  <line x1="40.55" y1="457.41" x2="40.55" y2="431.8" fill="#1d1d1b" stroke="#1d1d1b" stroke-miterlimit="10"/>
  <line x1="44.6" y1="457.41" x2="44.6" y2="431.8" fill="#1d1d1b" stroke="#1d1d1b" stroke-miterlimit="10"/>
  <circle cx="10.04" cy="420.64" r="5.09" fill="#fff" stroke="#1d1d1b" stroke-miterlimit="10"/>
  <circle cx="40.62" cy="420.64" r="5.09" fill="#fff" stroke="#1d1d1b" stroke-miterlimit="10"/>
  <circle cx="25.33" cy="420.41" r="5.09" fill="#fff" stroke="#1d1d1b" stroke-miterlimit="10"/>
  <circle cx="10.04" cy="406.3" r="5.09" fill="#1d1d1b" stroke="#1d1d1b" stroke-miterlimit="10"/>
  <circle cx="40.62" cy="406.3" r="5.09" fill="#1d1d1b" stroke="#1d1d1b" stroke-miterlimit="10"/>
  <circle cx="25.33" cy="406.07" r="5.09" fill="#1d1d1b" stroke="#1d1d1b" stroke-miterlimit="10"/>
  <circle cx="10.04" cy="389.58" r="5.09" fill="#fff" stroke="#1d1d1b" stroke-miterlimit="10"/>
  <circle cx="40.62" cy="389.58" r="5.09" fill="#fff" stroke="#1d1d1b" stroke-miterlimit="10"/>
  <circle cx="25.33" cy="389.35" r="5.09" fill="#fff" stroke="#1d1d1b" stroke-miterlimit="10"/>
  <circle cx="10.04" cy="375.24" r="5.09" fill="#1d1d1b" stroke="#1d1d1b" stroke-miterlimit="10"/>
  <circle cx="40.62" cy="375.24" r="5.09" fill="#1d1d1b" stroke="#1d1d1b" stroke-miterlimit="10"/>
  <circle cx="25.33" cy="375.01" r="5.09" fill="#1d1d1b" stroke="#1d1d1b" stroke-miterlimit="10"/>
  <circle cx="10.04" cy="358.52" r="5.09" fill="#fff" stroke="#1d1d1b" stroke-miterlimit="10"/>
  <circle cx="40.62" cy="358.52" r="5.09" fill="#fff" stroke="#1d1d1b" stroke-miterlimit="10"/>
  <circle cx="25.33" cy="358.3" r="5.09" fill="#fff" stroke="#1d1d1b" stroke-miterlimit="10"/>
  <circle cx="10.04" cy="344.18" r="5.09" fill="#1d1d1b" stroke="#1d1d1b" stroke-miterlimit="10"/>
  <circle cx="40.62" cy="344.18" r="5.09" fill="#1d1d1b" stroke="#1d1d1b" stroke-miterlimit="10"/>
  <circle cx="25.33" cy="343.96" r="5.09" fill="#1d1d1b" stroke="#1d1d1b" stroke-miterlimit="10"/>
  <circle cx="10.04" cy="327.46" r="5.09" fill="#fff" stroke="#1d1d1b" stroke-miterlimit="10"/>
  <circle cx="40.62" cy="327.46" r="5.09" fill="#fff" stroke="#1d1d1b" stroke-miterlimit="10"/>
  <circle cx="25.33" cy="327.24" r="5.09" fill="#fff" stroke="#1d1d1b" stroke-miterlimit="10"/>
  <circle cx="10.04" cy="313.12" r="5.09" fill="#1d1d1b" stroke="#1d1d1b" stroke-miterlimit="10"/>
  <circle cx="40.62" cy="313.12" r="5.09" fill="#1d1d1b" stroke="#1d1d1b" stroke-miterlimit="10"/>
  <circle cx="25.33" cy="312.9" r="5.09" fill="#1d1d1b" stroke="#1d1d1b" stroke-miterlimit="10"/>
</svg>