<svg id="Layer_1" data-name="Layer 1" xmlns="http://www.w3.org/2000/svg" viewBox="0 0 190.72 81.64">
  <circle cx="10.05" cy="17.84" r="7.48" fill="#043641"/>
  <circle cx="10.05" cy="40.82" r="7.48" fill="#043641"/>
  <circle cx="10.05" cy="63.8" r="7.48" fill="#043641"/>
  <circle cx="32.5" cy="17.84" r="7.48" fill="#043641"/>
  <circle cx="32.5" cy="40.82" r="7.48" fill="#043641"/>
  <circle cx="32.5" cy="63.8" r="7.48" fill="#043641"/>
  <circle cx="54.95" cy="17.84" r="7.48" fill="#043641"/>
  <circle cx="54.95" cy="40.82" r="7.48" fill="#043641"/>
  <circle cx="54.95" cy="63.8" r="7.48" fill="#043641"/>
  <polygon points="112.28 17.84 112.28 63.8 76.03 17.84 112.28 17.84" fill="#fff"/>
  <line x1="128.16" y1="10.36" x2="128.16" y2="71.28" fill="none" stroke="#035366" stroke-miterlimit="10"/>
  <line x1="134.62" y1="10.36" x2="134.62" y2="71.28" fill="none" stroke="#035366" stroke-miterlimit="10"/>
  <line x1="141.09" y1="10.36" x2="141.09" y2="71.28" fill="none" stroke="#035366" stroke-miterlimit="10"/>
  <line x1="147.56" y1="10.36" x2="147.56" y2="71.28" fill="none" stroke="#035366" stroke-miterlimit="10"/>
  <line x1="154.03" y1="10.36" x2="154.03" y2="71.28" fill="none" stroke="#035366" stroke-miterlimit="10"/>
  <line x1="160.5" y1="10.36" x2="160.5" y2="71.28" fill="none" stroke="#035366" stroke-miterlimit="10"/>
  <line x1="166.96" y1="10.36" x2="166.96" y2="71.28" fill="none" stroke="#035366" stroke-miterlimit="10"/>
  <line x1="173.43" y1="10.36" x2="173.43" y2="71.28" fill="none" stroke="#035366" stroke-miterlimit="10"/>
  <line x1="179.9" y1="10.36" x2="179.9" y2="71.28" fill="none" stroke="#035366" stroke-miterlimit="10"/>
  <line x1="186.37" y1="10.36" x2="186.37" y2="71.28" fill="none" stroke="#035366" stroke-miterlimit="10"/>
</svg>
