<?xml version="1.0" encoding="UTF-8"?>
<svg id="Layer_1" data-name="Layer 1" xmlns="http://www.w3.org/2000/svg" xmlns:xlink="http://www.w3.org/1999/xlink" viewBox="0 0 119 120.26">
  <defs>
    <clipPath id="clippath">
      <rect x="-318.57" y="-358.57" width="129.63" height="64.15" fill="none"/>
    </clipPath>
    <clipPath id="clippath-1">
      <rect x="-188.93" y="-358.57" width="129.63" height="64.15" fill="none"/>
    </clipPath>
    <clipPath id="clippath-2">
      <rect x="-202.15" y="-268.71" width="134.3" height="72.51" fill="none"/>
    </clipPath>
    <image id="image" width="3101" height="4462" xlink:href="C:\Users\User\Downloads\kiwihug-MS9Tnh3if1o-unsplash.jpg"/>
  </defs>
  <g clip-path="url(#clippath)">
    <use transform="translate(-365.33 -457.65) scale(.12)" xlink:href="#image"/>
  </g>
  <g clip-path="url(#clippath-1)">
    <use transform="translate(-235.7 -457.65) scale(.12)" xlink:href="#image"/>
  </g>
  <g clip-path="url(#clippath-2)">
    <use transform="translate(-250.6 -380.7) scale(.13 .14)" xlink:href="#image"/>
  </g>
  <polygon points=".78 1.13 .78 25.22 20.7 1.13 .78 1.13" fill="#1d1d1b" stroke="#1d1d1b" stroke-miterlimit="10"/>
  <polygon points="26.77 25.79 26.77 1.7 6.84 25.79 26.77 25.79" fill="none" stroke="#1d1d1b" stroke-miterlimit="10"/>
  <polygon points=".78 56.72 .78 32.63 20.7 56.72 .78 56.72" fill="none" stroke="#1d1d1b" stroke-miterlimit="10"/>
  <polygon points="26.77 32.06 26.77 56.14 6.84 32.06 26.77 32.06" fill="#1d1d1b" stroke="#1d1d1b" stroke-miterlimit="10"/>
  <polygon points=".78 62.99 .78 87.07 20.7 62.99 .78 62.99" fill="#1d1d1b" stroke="#1d1d1b" stroke-miterlimit="10"/>
  <polygon points="26.77 87.65 26.77 63.56 6.84 87.65 26.77 87.65" fill="none" stroke="#1d1d1b" stroke-miterlimit="10"/>
  <polygon points=".78 118.57 .78 94.49 20.7 118.57 .78 118.57" fill="none" stroke="#1d1d1b" stroke-miterlimit="10"/>
  <polygon points="26.77 93.91 26.77 118 6.84 93.91 26.77 93.91" fill="#1d1d1b" stroke="#1d1d1b" stroke-miterlimit="10"/>
  <line x1="30.92" y1="1.7" x2="71.43" y2="1.7" fill="none" stroke="#035366" stroke-miterlimit="10"/>
  <line x1="30.92" y1="6.52" x2="71.43" y2="6.52" fill="none" stroke="#035366" stroke-miterlimit="10"/>
  <line x1="30.92" y1="11.34" x2="71.43" y2="11.34" fill="none" stroke="#035366" stroke-miterlimit="10"/>
  <line x1="30.92" y1="16.15" x2="71.43" y2="16.15" fill="none" stroke="#035366" stroke-miterlimit="10"/>
  <line x1="30.92" y1="20.97" x2="71.43" y2="20.97" fill="none" stroke="#035366" stroke-miterlimit="10"/>
  <line x1="30.92" y1="25.79" x2="71.43" y2="25.79" fill="none" stroke="#035366" stroke-miterlimit="10"/>
  <line x1="30.92" y1="63.56" x2="71.43" y2="63.56" fill="none" stroke="#035366" stroke-miterlimit="10"/>
  <line x1="30.92" y1="68.38" x2="71.43" y2="68.38" fill="none" stroke="#035366" stroke-miterlimit="10"/>
  <line x1="30.92" y1="73.19" x2="71.43" y2="73.19" fill="none" stroke="#035366" stroke-miterlimit="10"/>
  <line x1="30.92" y1="78.01" x2="71.43" y2="78.01" fill="none" stroke="#035366" stroke-miterlimit="10"/>
  <line x1="30.92" y1="82.83" x2="71.43" y2="82.83" fill="none" stroke="#035366" stroke-miterlimit="10"/>
  <line x1="30.92" y1="87.65" x2="71.43" y2="87.65" fill="none" stroke="#035366" stroke-miterlimit="10"/>
  <line x1="30.92" y1="32.06" x2="30.92" y2="57.66" fill="#1d1d1b" stroke="#1d1d1b" stroke-miterlimit="10"/>
  <line x1="34.97" y1="32.06" x2="34.97" y2="57.66" fill="#1d1d1b" stroke="#1d1d1b" stroke-miterlimit="10"/>
  <line x1="39.02" y1="32.06" x2="39.02" y2="57.66" fill="#1d1d1b" stroke="#1d1d1b" stroke-miterlimit="10"/>
  <line x1="43.07" y1="32.06" x2="43.07" y2="57.66" fill="#1d1d1b" stroke="#1d1d1b" stroke-miterlimit="10"/>
  <line x1="47.12" y1="32.06" x2="47.12" y2="57.66" fill="#1d1d1b" stroke="#1d1d1b" stroke-miterlimit="10"/>
  <line x1="51.17" y1="32.06" x2="51.17" y2="57.66" fill="#1d1d1b" stroke="#1d1d1b" stroke-miterlimit="10"/>
  <line x1="55.22" y1="32.06" x2="55.22" y2="57.66" fill="#1d1d1b" stroke="#1d1d1b" stroke-miterlimit="10"/>
  <line x1="59.27" y1="32.06" x2="59.27" y2="57.66" fill="#1d1d1b" stroke="#1d1d1b" stroke-miterlimit="10"/>
  <line x1="63.33" y1="32.06" x2="63.33" y2="57.66" fill="#1d1d1b" stroke="#1d1d1b" stroke-miterlimit="10"/>
  <line x1="67.38" y1="32.06" x2="67.38" y2="57.66" fill="#1d1d1b" stroke="#1d1d1b" stroke-miterlimit="10"/>
  <line x1="71.43" y1="32.06" x2="71.43" y2="57.66" fill="#1d1d1b" stroke="#1d1d1b" stroke-miterlimit="10"/>
  <line x1="30.92" y1="93.73" x2="30.92" y2="119.33" fill="#1d1d1b" stroke="#1d1d1b" stroke-miterlimit="10"/>
  <line x1="34.97" y1="93.73" x2="34.97" y2="119.33" fill="#1d1d1b" stroke="#1d1d1b" stroke-miterlimit="10"/>
  <line x1="39.02" y1="93.73" x2="39.02" y2="119.33" fill="#1d1d1b" stroke="#1d1d1b" stroke-miterlimit="10"/>
  <line x1="43.07" y1="93.73" x2="43.07" y2="119.33" fill="#1d1d1b" stroke="#1d1d1b" stroke-miterlimit="10"/>
  <line x1="47.12" y1="93.73" x2="47.12" y2="119.33" fill="#1d1d1b" stroke="#1d1d1b" stroke-miterlimit="10"/>
  <line x1="51.17" y1="93.73" x2="51.17" y2="119.33" fill="#1d1d1b" stroke="#1d1d1b" stroke-miterlimit="10"/>
  <line x1="55.22" y1="93.73" x2="55.22" y2="119.33" fill="#1d1d1b" stroke="#1d1d1b" stroke-miterlimit="10"/>
  <line x1="59.27" y1="93.73" x2="59.27" y2="119.33" fill="#1d1d1b" stroke="#1d1d1b" stroke-miterlimit="10"/>
  <line x1="63.33" y1="93.73" x2="63.33" y2="119.33" fill="#1d1d1b" stroke="#1d1d1b" stroke-miterlimit="10"/>
  <line x1="67.38" y1="93.73" x2="67.38" y2="119.33" fill="#1d1d1b" stroke="#1d1d1b" stroke-miterlimit="10"/>
  <line x1="71.43" y1="93.73" x2="71.43" y2="119.33" fill="#1d1d1b" stroke="#1d1d1b" stroke-miterlimit="10"/>
  <circle cx="82.56" cy="6.52" r="5.09" fill="#1d1d1b" stroke="#1d1d1b" stroke-miterlimit="10"/>
  <circle cx="113.14" cy="6.52" r="5.09" fill="#1d1d1b" stroke="#1d1d1b" stroke-miterlimit="10"/>
  <circle cx="97.85" cy="6.75" r="5.09" fill="#1d1d1b" stroke="#1d1d1b" stroke-miterlimit="10"/>
  <circle cx="82.56" cy="20.86" r="5.09" fill="#1d1d1b" stroke="#1d1d1b" stroke-miterlimit="10"/>
  <circle cx="113.14" cy="20.86" r="5.09" fill="#1d1d1b" stroke="#1d1d1b" stroke-miterlimit="10"/>
  <circle cx="97.85" cy="21.08" r="5.09" fill="#1d1d1b" stroke="#1d1d1b" stroke-miterlimit="10"/>
  <circle cx="82.56" cy="37.58" r="5.09" fill="#1d1d1b" stroke="#1d1d1b" stroke-miterlimit="10"/>
  <circle cx="113.14" cy="37.58" r="5.09" fill="#1d1d1b" stroke="#1d1d1b" stroke-miterlimit="10"/>
  <circle cx="97.85" cy="37.8" r="5.09" fill="#1d1d1b" stroke="#1d1d1b" stroke-miterlimit="10"/>
  <circle cx="82.56" cy="51.92" r="5.09" fill="#1d1d1b" stroke="#1d1d1b" stroke-miterlimit="10"/>
  <circle cx="113.14" cy="51.92" r="5.09" fill="#1d1d1b" stroke="#1d1d1b" stroke-miterlimit="10"/>
  <circle cx="97.85" cy="52.14" r="5.09" fill="#1d1d1b" stroke="#1d1d1b" stroke-miterlimit="10"/>
  <circle cx="82.56" cy="68.64" r="5.09" fill="#1d1d1b" stroke="#1d1d1b" stroke-miterlimit="10"/>
  <circle cx="113.14" cy="68.64" r="5.09" fill="#1d1d1b" stroke="#1d1d1b" stroke-miterlimit="10"/>
  <circle cx="97.85" cy="68.86" r="5.09" fill="#1d1d1b" stroke="#1d1d1b" stroke-miterlimit="10"/>
  <circle cx="82.56" cy="82.97" r="5.09" fill="#1d1d1b" stroke="#1d1d1b" stroke-miterlimit="10"/>
  <circle cx="113.14" cy="82.97" r="5.09" fill="#1d1d1b" stroke="#1d1d1b" stroke-miterlimit="10"/>
  <circle cx="97.85" cy="83.2" r="5.09" fill="#1d1d1b" stroke="#1d1d1b" stroke-miterlimit="10"/>
  <circle cx="82.56" cy="99.69" r="5.09" fill="#1d1d1b" stroke="#1d1d1b" stroke-miterlimit="10"/>
  <circle cx="113.14" cy="99.69" r="5.09" fill="#1d1d1b" stroke="#1d1d1b" stroke-miterlimit="10"/>
  <circle cx="97.85" cy="99.92" r="5.09" fill="#1d1d1b" stroke="#1d1d1b" stroke-miterlimit="10"/>
  <circle cx="82.56" cy="114.03" r="5.09" fill="#1d1d1b" stroke="#1d1d1b" stroke-miterlimit="10"/>
  <circle cx="113.14" cy="114.03" r="5.09" fill="#1d1d1b" stroke="#1d1d1b" stroke-miterlimit="10"/>
  <circle cx="97.85" cy="114.26" r="5.09" fill="#1d1d1b" stroke="#1d1d1b" stroke-miterlimit="10"/>
</svg>