<svg id="Layer_1" data-name="Layer 1" xmlns="http://www.w3.org/2000/svg" xmlns:xlink="http://www.w3.org/1999/xlink" viewBox="0 0 108.83 111.32">
  <defs>
    <clipPath id="clip-path">
      <rect x="-115.85" y="130.21" width="134.3" height="72.51" fill="none"/>
    </clipPath>
    <clipPath id="clip-path-2">
      <rect x="18.45" y="130.21" width="134.3" height="72.51" fill="none"/>
    </clipPath>
    <image id="image" width="3101" height="4462" xlink:href="C:%5CUsers%5CUser%5CDownloads%5Ckiwihug-MS9Tnh3if1o-unsplash.jpg"/>
  </defs>
  <rect x="12.01" y="69.16" width="29.67" height="29.67" transform="translate(-51.53 43.58) rotate(-45)" fill="#035366"/>
  <circle cx="64.31" cy="27.33" r="5.84" fill="#043641"/>
  <circle cx="81.83" cy="9.39" r="5.84" fill="#043641"/>
  <circle cx="81.83" cy="27.33" r="5.84" fill="#043641"/>
  <circle cx="81.83" cy="45.26" r="5.84" fill="#043641"/>
  <circle cx="99.35" cy="27.33" r="5.84" fill="#043641"/>
  <g>
    <line x1="58.16" y1="107.77" x2="105.19" y2="107.77" fill="none" stroke="#1d1d1b" stroke-miterlimit="10"/>
    <line x1="58.16" y1="102.49" x2="105.19" y2="102.49" fill="none" stroke="#1d1d1b" stroke-miterlimit="10"/>
    <line x1="58.16" y1="97.2" x2="105.19" y2="97.2" fill="none" stroke="#1d1d1b" stroke-miterlimit="10"/>
    <line x1="58.16" y1="91.92" x2="105.19" y2="91.92" fill="none" stroke="#1d1d1b" stroke-miterlimit="10"/>
    <line x1="58.16" y1="86.63" x2="105.19" y2="86.63" fill="none" stroke="#1d1d1b" stroke-miterlimit="10"/>
    <line x1="58.16" y1="81.35" x2="105.19" y2="81.35" fill="none" stroke="#1d1d1b" stroke-miterlimit="10"/>
    <line x1="58.16" y1="76.07" x2="105.19" y2="76.07" fill="none" stroke="#1d1d1b" stroke-miterlimit="10"/>
    <line x1="58.16" y1="70.78" x2="105.19" y2="70.78" fill="none" stroke="#1d1d1b" stroke-miterlimit="10"/>
    <line x1="58.16" y1="65.5" x2="105.19" y2="65.5" fill="none" stroke="#1d1d1b" stroke-miterlimit="10"/>
    <line x1="58.16" y1="60.22" x2="105.19" y2="60.22" fill="none" stroke="#1d1d1b" stroke-miterlimit="10"/>
  </g>
  <line x1="10.08" y1="3.55" x2="10.08" y2="16.72" fill="#fff" stroke="#1d1d1b" stroke-miterlimit="10"/>
  <line x1="3.5" y1="10.13" x2="16.67" y2="10.13" fill="#fff" stroke="#1d1d1b" stroke-miterlimit="10"/>
  <line x1="26.84" y1="3.55" x2="26.84" y2="16.72" fill="#fff" stroke="#1d1d1b" stroke-miterlimit="10"/>
  <line x1="20.26" y1="10.13" x2="33.43" y2="10.13" fill="#fff" stroke="#1d1d1b" stroke-miterlimit="10"/>
  <line x1="42.73" y1="3.55" x2="42.73" y2="16.72" fill="#fff" stroke="#1d1d1b" stroke-miterlimit="10"/>
  <line x1="36.15" y1="10.13" x2="49.32" y2="10.13" fill="#fff" stroke="#1d1d1b" stroke-miterlimit="10"/>
  <line x1="10.08" y1="20.74" x2="10.08" y2="33.91" fill="#fff" stroke="#1d1d1b" stroke-miterlimit="10"/>
  <line x1="3.5" y1="27.33" x2="16.67" y2="27.33" fill="#fff" stroke="#1d1d1b" stroke-miterlimit="10"/>
  <line x1="26.84" y1="20.74" x2="26.84" y2="33.91" fill="#fff" stroke="#1d1d1b" stroke-miterlimit="10"/>
  <line x1="20.26" y1="27.33" x2="33.43" y2="27.33" fill="#fff" stroke="#1d1d1b" stroke-miterlimit="10"/>
  <line x1="42.73" y1="20.74" x2="42.73" y2="33.91" fill="#fff" stroke="#1d1d1b" stroke-miterlimit="10"/>
  <line x1="36.15" y1="27.33" x2="49.32" y2="27.33" fill="#fff" stroke="#1d1d1b" stroke-miterlimit="10"/>
  <line x1="10.08" y1="37.94" x2="10.08" y2="51.1" fill="#fff" stroke="#1d1d1b" stroke-miterlimit="10"/>
  <line x1="3.5" y1="44.52" x2="16.67" y2="44.52" fill="#fff" stroke="#1d1d1b" stroke-miterlimit="10"/>
  <line x1="26.84" y1="37.94" x2="26.84" y2="51.1" fill="#fff" stroke="#1d1d1b" stroke-miterlimit="10"/>
  <line x1="20.26" y1="44.52" x2="33.43" y2="44.52" fill="#fff" stroke="#1d1d1b" stroke-miterlimit="10"/>
  <line x1="42.73" y1="37.94" x2="42.73" y2="51.1" fill="#fff" stroke="#1d1d1b" stroke-miterlimit="10"/>
  <line x1="36.15" y1="44.52" x2="49.32" y2="44.52" fill="#fff" stroke="#1d1d1b" stroke-miterlimit="10"/>
  <g clip-path="url(#clip-path)">
    <use transform="translate(-164.3 18.22) scale(0.13 0.14)" xlink:href="#image"/>
  </g>
  <g clip-path="url(#clip-path-2)">
    <use transform="translate(-30 18.22) scale(0.13 0.14)" xlink:href="#image"/>
  </g>
</svg>
